<?xml version="1.0" encoding="UTF-8" standalone="no"?>
<!DOCTYPE svg PUBLIC "-//W3C//DTD SVG 1.1//EN"
 "http://www.w3.org/Graphics/SVG/1.1/DTD/svg11.dtd">
<!-- Generated by graphviz version 2.43.0 (0)
 -->
<!-- Title: foo Pages: 1 -->
<svg width="400pt" height="537pt"
 viewBox="0.00 0.00 400.00 537.00" xmlns="http://www.w3.org/2000/svg" xmlns:xlink="http://www.w3.org/1999/xlink">
<g id="graph0" class="graph" transform="scale(1 1) rotate(0) translate(4 533)">
<title>foo</title>
<polygon fill="white" stroke="transparent" points="-4,4 -4,-533 396,-533 396,4 -4,4"/>
<!-- bb0 -->
<g id="node1" class="node">
<title>bb0</title>
<polygon fill="none" stroke="black" points="371.5,-529 107.5,-529 107.5,-431 371.5,-431 371.5,-529"/>
<text text-anchor="start" x="115.5" y="-513.8" font-family="monospace" font-size="14.00">401110: push &#160;&#160;%r15</text>
<text text-anchor="start" x="115.5" y="-498.8" font-family="monospace" font-size="14.00">401112: push &#160;&#160;%r14</text>
<text text-anchor="start" x="115.5" y="-483.8" font-family="monospace" font-size="14.00">401114: push &#160;&#160;%rbx</text>
<text text-anchor="start" x="115.5" y="-468.8" font-family="monospace" font-size="14.00">401115: mov &#160;&#160;&#160;$0x404040,%r15d</text>
<text text-anchor="start" x="115.5" y="-453.8" font-family="monospace" font-size="14.00">40111b: xor &#160;&#160;&#160;%r14d,%r14d</text>
<text text-anchor="start" x="115.5" y="-438.8" font-family="monospace" font-size="14.00">40111e: xchg &#160;&#160;%ax,%ax</text>
</g>
<!-- bb6 -->
<g id="node2" class="node">
<title>bb6</title>
<polygon fill="none" stroke="black" points="392,-395 87,-395 87,-342 392,-342 392,-395"/>
<text text-anchor="start" x="95" y="-379.8" font-family="monospace" font-size="14.00">401120: xor &#160;&#160;&#160;%ebx,%ebx</text>
<text text-anchor="start" x="95" y="-364.8" font-family="monospace" font-size="14.00">401122: nopw &#160;&#160;%cs:0x0(%rax,%rax,1)</text>
<text text-anchor="start" x="95" y="-349.8" font-family="monospace" font-size="14.00">40112c: nopl &#160;&#160;0x0(%rax)</text>
</g>
<!-- bb0&#45;&gt;bb6 -->
<g id="edge1" class="edge">
<title>bb0&#45;&gt;bb6</title>
<path fill="none" stroke="black" d="M239.5,-430.97C239.5,-422.42 239.5,-413.65 239.5,-405.51"/>
<polygon fill="black" stroke="black" points="243,-405.23 239.5,-395.23 236,-405.23 243,-405.23"/>
</g>
<!-- bb9 -->
<g id="node3" class="node">
<title>bb9</title>
<polygon fill="none" stroke="black" points="289,-306 0,-306 0,-223 289,-223 289,-306"/>
<text text-anchor="start" x="8" y="-290.8" font-family="monospace" font-size="14.00">401130: mov &#160;&#160;&#160;(%r15,%rbx,4),%edi</text>
<text text-anchor="start" x="8" y="-275.8" font-family="monospace" font-size="14.00">401134: callq &#160;401170 &lt;_Z3fooi&gt;</text>
<text text-anchor="start" x="8" y="-260.8" font-family="monospace" font-size="14.00">401139: add &#160;&#160;&#160;$0x1,%rbx</text>
<text text-anchor="start" x="8" y="-245.8" font-family="monospace" font-size="14.00">40113d: cmp &#160;&#160;&#160;$0x400,%rbx</text>
<text text-anchor="start" x="8" y="-230.8" font-family="monospace" font-size="14.00">401144: jne &#160;&#160;&#160;401130 &lt;main+0x20&gt;</text>
</g>
<!-- bb6&#45;&gt;bb9 -->
<g id="edge2" class="edge">
<title>bb6&#45;&gt;bb9</title>
<path fill="none" stroke="black" d="M215.53,-341.76C207.56,-333.2 198.4,-323.37 189.37,-313.68"/>
<polygon fill="black" stroke="black" points="191.89,-311.25 182.52,-306.32 186.77,-316.02 191.89,-311.25"/>
</g>
<!-- bb9&#45;&gt;bb9 -->
<g id="edge3" class="edge">
<title>bb9&#45;&gt;bb9</title>
<path fill="none" stroke="black" d="M289.23,-279.12C300.23,-275.88 307,-271 307,-264.5 307,-260.13 303.94,-256.5 298.6,-253.6"/>
<polygon fill="black" stroke="black" points="299.81,-250.31 289.23,-249.88 297.23,-256.82 299.81,-250.31"/>
</g>
<!-- bb14 -->
<g id="node4" class="node">
<title>bb14</title>
<polygon fill="none" stroke="black" points="384,-187 95,-187 95,-119 384,-119 384,-187"/>
<text text-anchor="start" x="103" y="-171.8" font-family="monospace" font-size="14.00">401146: add &#160;&#160;&#160;$0x1,%r14</text>
<text text-anchor="start" x="103" y="-156.8" font-family="monospace" font-size="14.00">40114a: add &#160;&#160;&#160;$0x1000,%r15</text>
<text text-anchor="start" x="103" y="-141.8" font-family="monospace" font-size="14.00">401151: cmp &#160;&#160;&#160;$0x400,%r14</text>
<text text-anchor="start" x="103" y="-126.8" font-family="monospace" font-size="14.00">401158: jne &#160;&#160;&#160;401120 &lt;main+0x10&gt;</text>
</g>
<!-- bb9&#45;&gt;bb14 -->
<g id="edge4" class="edge">
<title>bb9&#45;&gt;bb14</title>
<path fill="none" stroke="black" d="M179.87,-222.73C187.71,-213.7 196.01,-204.12 203.86,-195.08"/>
<polygon fill="black" stroke="black" points="206.7,-197.15 210.61,-187.3 201.41,-192.56 206.7,-197.15"/>
</g>
<!-- bb14&#45;&gt;bb6 -->
<g id="edge6" class="edge">
<title>bb14&#45;&gt;bb6</title>
<path fill="none" stroke="black" d="M288.11,-187.05C299.17,-197.18 309.44,-209.31 315.5,-223 330.43,-256.73 331.39,-272.71 315.5,-306 310.14,-317.24 301.6,-327.09 292.16,-335.42"/>
<polygon fill="black" stroke="black" points="289.93,-332.72 284.43,-341.78 294.38,-338.13 289.93,-332.72"/>
</g>
<!-- bb18 -->
<g id="node5" class="node">
<title>bb18</title>
<polygon fill="none" stroke="black" points="347,-83 132,-83 132,0 347,0 347,-83"/>
<text text-anchor="start" x="140" y="-67.8" font-family="monospace" font-size="14.00">40115a: xor &#160;&#160;&#160;%eax,%eax</text>
<text text-anchor="start" x="140" y="-52.8" font-family="monospace" font-size="14.00">40115c: pop &#160;&#160;&#160;%rbx</text>
<text text-anchor="start" x="140" y="-37.8" font-family="monospace" font-size="14.00">40115d: pop &#160;&#160;&#160;%r14</text>
<text text-anchor="start" x="140" y="-22.8" font-family="monospace" font-size="14.00">40115f: pop &#160;&#160;&#160;%r15</text>
<text text-anchor="start" x="140" y="-7.8" font-family="monospace" font-size="14.00">401161: retq &#160;&#160;</text>
</g>
<!-- bb14&#45;&gt;bb18 -->
<g id="edge5" class="edge">
<title>bb14&#45;&gt;bb18</title>
<path fill="none" stroke="black" d="M239.5,-118.85C239.5,-110.8 239.5,-102 239.5,-93.34"/>
<polygon fill="black" stroke="black" points="243,-93.28 239.5,-83.28 236,-93.28 243,-93.28"/>
</g>
</g>
</svg>
