<?xml version="1.0" encoding="UTF-8" standalone="no"?>
<!DOCTYPE svg PUBLIC "-//W3C//DTD SVG 1.1//EN"
 "http://www.w3.org/Graphics/SVG/1.1/DTD/svg11.dtd">
<!-- Generated by graphviz version 2.43.0 (0)
 -->
<!-- Title: main Pages: 1 -->
<svg width="1792pt" height="210pt"
 viewBox="0.00 0.00 1792.00 210.00" xmlns="http://www.w3.org/2000/svg" xmlns:xlink="http://www.w3.org/1999/xlink">
<g id="graph0" class="graph" transform="scale(1 1) rotate(0) translate(4 206)">
<title>main</title>
<polygon fill="white" stroke="transparent" points="-4,4 -4,-206 1788,-206 1788,4 -4,4"/>
<!-- bb0 -->
<g id="node1" class="node">
<title>bb0</title>
<polygon fill="none" stroke="black" points="1036,-202 747,-202 747,-149 1036,-149 1036,-202"/>
<text text-anchor="start" x="755" y="-186.8" font-family="monospace" font-size="14.00">401180: push &#160;&#160;%rax</text>
<text text-anchor="start" x="755" y="-171.8" font-family="monospace" font-size="14.00">401181: cmp &#160;&#160;&#160;$0x3,%edi</text>
<text text-anchor="start" x="755" y="-156.8" font-family="monospace" font-size="14.00">401184: jl &#160;&#160;&#160;&#160;40119e &lt;main+0x1e&gt;</text>
</g>
<!-- bb3 -->
<g id="node2" class="node">
<title>bb3</title>
<polygon fill="none" stroke="black" points="883,-113 0,-113 0,0 883,0 883,-113"/>
<text text-anchor="start" x="8" y="-97.8" font-family="monospace" font-size="14.00">401186: mov &#160;&#160;&#160;$0x404080,%edi</text>
<text text-anchor="start" x="8" y="-82.8" font-family="monospace" font-size="14.00">40118b: mov &#160;&#160;&#160;$0x402004,%esi</text>
<text text-anchor="start" x="8" y="-67.8" font-family="monospace" font-size="14.00">401190: mov &#160;&#160;&#160;$0xe,%edx</text>
<text text-anchor="start" x="8" y="-52.8" font-family="monospace" font-size="14.00">401195: callq &#160;401040 &lt;_ZSt16__ostream_insertIcSt11char_traitsIcEERSt13basic_ostreamIT_T0_ES6_PKS3_l@plt&gt;</text>
<text text-anchor="start" x="8" y="-37.8" font-family="monospace" font-size="14.00">40119a: xor &#160;&#160;&#160;%eax,%eax</text>
<text text-anchor="start" x="8" y="-22.8" font-family="monospace" font-size="14.00">40119c: pop &#160;&#160;&#160;%rcx</text>
<text text-anchor="start" x="8" y="-7.8" font-family="monospace" font-size="14.00">40119d: retq &#160;&#160;</text>
</g>
<!-- bb0&#45;&gt;bb3 -->
<g id="edge2" class="edge">
<title>bb0&#45;&gt;bb3</title>
<path fill="none" stroke="black" d="M793.3,-148.97C755.36,-139.1 710.26,-127.38 665.24,-115.67"/>
<polygon fill="black" stroke="black" points="665.89,-112.23 655.33,-113.1 664.13,-119 665.89,-112.23"/>
</g>
<!-- bb10 -->
<g id="node3" class="node">
<title>bb10</title>
<polygon fill="none" stroke="black" points="1784,-113 901,-113 901,0 1784,0 1784,-113"/>
<text text-anchor="start" x="909" y="-97.8" font-family="monospace" font-size="14.00">40119e: mov &#160;&#160;&#160;$0x404080,%edi</text>
<text text-anchor="start" x="909" y="-82.8" font-family="monospace" font-size="14.00">4011a3: mov &#160;&#160;&#160;$0x402013,%esi</text>
<text text-anchor="start" x="909" y="-67.8" font-family="monospace" font-size="14.00">4011a8: mov &#160;&#160;&#160;$0xc,%edx</text>
<text text-anchor="start" x="909" y="-52.8" font-family="monospace" font-size="14.00">4011ad: callq &#160;401040 &lt;_ZSt16__ostream_insertIcSt11char_traitsIcEERSt13basic_ostreamIT_T0_ES6_PKS3_l@plt&gt;</text>
<text text-anchor="start" x="909" y="-37.8" font-family="monospace" font-size="14.00">4011b2: xor &#160;&#160;&#160;%eax,%eax</text>
<text text-anchor="start" x="909" y="-22.8" font-family="monospace" font-size="14.00">4011b4: pop &#160;&#160;&#160;%rcx</text>
<text text-anchor="start" x="909" y="-7.8" font-family="monospace" font-size="14.00">4011b5: retq &#160;&#160;</text>
</g>
<!-- bb0&#45;&gt;bb10 -->
<g id="edge1" class="edge">
<title>bb0&#45;&gt;bb10</title>
<path fill="none" stroke="black" d="M989.92,-148.97C1027.95,-139.1 1073.14,-127.38 1118.26,-115.67"/>
<polygon fill="black" stroke="black" points="1119.39,-119 1128.19,-113.1 1117.63,-112.22 1119.39,-119"/>
</g>
</g>
</svg>
